<mxfile host="app.diagrams.net" modified="2023-12-08T22:10:21.676Z" agent="Mozilla/5.0 (Windows NT 10.0; Win64; x64) AppleWebKit/537.36 (KHTML, like Gecko) Chrome/120.0.0.0 Safari/537.36" etag="h4eGL8WWiP8-HJX1lDqe" version="22.1.7" type="device">
  <diagram name="Page-1" id="2YBvvXClWsGukQMizWep">
    <mxGraphModel dx="1562" dy="748" grid="1" gridSize="10" guides="1" tooltips="1" connect="1" arrows="1" fold="1" page="1" pageScale="1" pageWidth="850" pageHeight="1100" math="0" shadow="0">
      <root>
        <mxCell id="0" />
        <mxCell id="1" parent="0" />
        <mxCell id="7gcUfqCAIOT7PAXHqLe8-1" value="CKB platform" style="shape=umlLifeline;perimeter=lifelinePerimeter;whiteSpace=wrap;html=1;container=0;dropTarget=0;collapsible=0;recursiveResize=0;outlineConnect=0;portConstraint=eastwest;newEdgeStyle={&quot;edgeStyle&quot;:&quot;elbowEdgeStyle&quot;,&quot;elbow&quot;:&quot;vertical&quot;,&quot;curved&quot;:0,&quot;rounded&quot;:0};" vertex="1" parent="1">
          <mxGeometry x="80" y="40" width="100" height="520" as="geometry" />
        </mxCell>
        <mxCell id="7gcUfqCAIOT7PAXHqLe8-2" value="" style="html=1;points=[];perimeter=orthogonalPerimeter;outlineConnect=0;targetShapes=umlLifeline;portConstraint=eastwest;newEdgeStyle={&quot;edgeStyle&quot;:&quot;elbowEdgeStyle&quot;,&quot;elbow&quot;:&quot;vertical&quot;,&quot;curved&quot;:0,&quot;rounded&quot;:0};" vertex="1" parent="7gcUfqCAIOT7PAXHqLe8-1">
          <mxGeometry x="46" y="260" width="10" height="250" as="geometry" />
        </mxCell>
        <mxCell id="7gcUfqCAIOT7PAXHqLe8-3" value="&lt;font style=&quot;font-size: 9px;&quot;&gt;Student&lt;/font&gt;" style="shape=umlActor;verticalLabelPosition=bottom;verticalAlign=top;html=1;outlineConnect=0;" vertex="1" parent="1">
          <mxGeometry x="-100" y="40" width="20" height="40" as="geometry" />
        </mxCell>
        <mxCell id="7gcUfqCAIOT7PAXHqLe8-4" value="" style="endArrow=none;dashed=1;html=1;rounded=0;" edge="1" parent="1" source="7gcUfqCAIOT7PAXHqLe8-5">
          <mxGeometry width="50" height="50" relative="1" as="geometry">
            <mxPoint x="-90" y="350" as="sourcePoint" />
            <mxPoint x="-90" y="100" as="targetPoint" />
          </mxGeometry>
        </mxCell>
        <mxCell id="7gcUfqCAIOT7PAXHqLe8-5" value="" style="html=1;points=[];perimeter=orthogonalPerimeter;outlineConnect=0;targetShapes=umlLifeline;portConstraint=eastwest;newEdgeStyle={&quot;edgeStyle&quot;:&quot;elbowEdgeStyle&quot;,&quot;elbow&quot;:&quot;vertical&quot;,&quot;curved&quot;:0,&quot;rounded&quot;:0};" vertex="1" parent="1">
          <mxGeometry x="-95" y="110" width="10" height="490" as="geometry" />
        </mxCell>
        <mxCell id="7gcUfqCAIOT7PAXHqLe8-6" value="&lt;font style=&quot;font-size: 9px;&quot;&gt;1 : login(credentials)&lt;/font&gt;" style="html=1;verticalAlign=bottom;endArrow=block;edgeStyle=elbowEdgeStyle;elbow=horizontal;curved=0;rounded=0;" edge="1" parent="1" source="7gcUfqCAIOT7PAXHqLe8-5" target="7gcUfqCAIOT7PAXHqLe8-15">
          <mxGeometry x="0.5366" relative="1" as="geometry">
            <mxPoint x="-50" y="110" as="sourcePoint" />
            <Array as="points">
              <mxPoint x="30" y="110" />
            </Array>
            <mxPoint x="320" y="110" as="targetPoint" />
            <mxPoint as="offset" />
          </mxGeometry>
        </mxCell>
        <mxCell id="7gcUfqCAIOT7PAXHqLe8-7" value="&lt;font style=&quot;font-size: 9px;&quot;&gt;2 : showPage(homePage)&lt;/font&gt;" style="html=1;verticalAlign=bottom;endArrow=openThin;dashed=1;endSize=8;edgeStyle=elbowEdgeStyle;elbow=vertical;curved=0;rounded=0;endFill=0;" edge="1" parent="1" source="7gcUfqCAIOT7PAXHqLe8-15" target="7gcUfqCAIOT7PAXHqLe8-5">
          <mxGeometry x="-0.5366" relative="1" as="geometry">
            <mxPoint x="-50" y="140" as="targetPoint" />
            <Array as="points">
              <mxPoint x="5" y="140" />
            </Array>
            <mxPoint x="125" y="140" as="sourcePoint" />
            <mxPoint as="offset" />
          </mxGeometry>
        </mxCell>
        <mxCell id="7gcUfqCAIOT7PAXHqLe8-8" value="&lt;font style=&quot;font-size: 9px;&quot;&gt;3&amp;nbsp;: request(repository)&lt;/font&gt;" style="html=1;verticalAlign=bottom;endArrow=block;edgeStyle=elbowEdgeStyle;elbow=vertical;curved=0;rounded=0;" edge="1" parent="1" source="7gcUfqCAIOT7PAXHqLe8-5" target="7gcUfqCAIOT7PAXHqLe8-17">
          <mxGeometry relative="1" as="geometry">
            <mxPoint x="-80" y="190" as="sourcePoint" />
            <Array as="points">
              <mxPoint x="30" y="170" />
            </Array>
            <mxPoint x="90" y="200" as="targetPoint" />
          </mxGeometry>
        </mxCell>
        <mxCell id="7gcUfqCAIOT7PAXHqLe8-9" value="&lt;font style=&quot;font-size: 9px;&quot;&gt;4 : showPage(repositoryPage)&lt;/font&gt;" style="html=1;verticalAlign=bottom;endArrow=openThin;dashed=1;endSize=8;edgeStyle=elbowEdgeStyle;elbow=vertical;curved=0;rounded=0;endFill=0;" edge="1" parent="1" source="7gcUfqCAIOT7PAXHqLe8-17" target="7gcUfqCAIOT7PAXHqLe8-5">
          <mxGeometry relative="1" as="geometry">
            <mxPoint x="-85" y="230" as="targetPoint" />
            <Array as="points">
              <mxPoint x="120" y="200" />
            </Array>
            <mxPoint x="125" y="230" as="sourcePoint" />
          </mxGeometry>
        </mxCell>
        <mxCell id="7gcUfqCAIOT7PAXHqLe8-10" value="&lt;font style=&quot;font-size: 9px;&quot;&gt;5 : upload(newSolution)&lt;/font&gt;" style="html=1;verticalAlign=bottom;endArrow=block;edgeStyle=elbowEdgeStyle;elbow=horizontal;curved=0;rounded=0;" edge="1" parent="1" target="7gcUfqCAIOT7PAXHqLe8-19">
          <mxGeometry relative="1" as="geometry">
            <mxPoint x="-85" y="230" as="sourcePoint" />
            <Array as="points">
              <mxPoint x="30" y="230" />
            </Array>
            <mxPoint x="125" y="230" as="targetPoint" />
            <mxPoint as="offset" />
          </mxGeometry>
        </mxCell>
        <mxCell id="7gcUfqCAIOT7PAXHqLe8-11" value="&lt;font style=&quot;font-size: 9px;&quot;&gt;6 : sendMessage(confirmation)&lt;/font&gt;" style="html=1;verticalAlign=bottom;endArrow=open;endSize=8;edgeStyle=elbowEdgeStyle;elbow=vertical;curved=0;rounded=0;endFill=0;" edge="1" parent="1" source="7gcUfqCAIOT7PAXHqLe8-19" target="7gcUfqCAIOT7PAXHqLe8-5">
          <mxGeometry relative="1" as="geometry">
            <mxPoint x="-80" y="260" as="targetPoint" />
            <Array as="points">
              <mxPoint x="20" y="270" />
            </Array>
            <mxPoint x="130" y="260" as="sourcePoint" />
          </mxGeometry>
        </mxCell>
        <mxCell id="7gcUfqCAIOT7PAXHqLe8-12" value="&lt;font style=&quot;font-size: 9px;&quot;&gt;GitHub&lt;/font&gt;" style="shape=umlActor;verticalLabelPosition=bottom;verticalAlign=top;html=1;outlineConnect=0;" vertex="1" parent="1">
          <mxGeometry x="320" y="40" width="20" height="40" as="geometry" />
        </mxCell>
        <mxCell id="7gcUfqCAIOT7PAXHqLe8-13" value="" style="endArrow=none;dashed=1;html=1;rounded=0;" edge="1" parent="1" source="7gcUfqCAIOT7PAXHqLe8-15">
          <mxGeometry width="50" height="50" relative="1" as="geometry">
            <mxPoint x="330" y="670" as="sourcePoint" />
            <mxPoint x="330" y="100" as="targetPoint" />
          </mxGeometry>
        </mxCell>
        <mxCell id="7gcUfqCAIOT7PAXHqLe8-14" value="" style="endArrow=none;dashed=1;html=1;rounded=0;" edge="1" parent="1" source="7gcUfqCAIOT7PAXHqLe8-17" target="7gcUfqCAIOT7PAXHqLe8-15">
          <mxGeometry width="50" height="50" relative="1" as="geometry">
            <mxPoint x="330" y="670" as="sourcePoint" />
            <mxPoint x="330" y="100" as="targetPoint" />
          </mxGeometry>
        </mxCell>
        <mxCell id="7gcUfqCAIOT7PAXHqLe8-15" value="" style="html=1;points=[];perimeter=orthogonalPerimeter;outlineConnect=0;targetShapes=umlLifeline;portConstraint=eastwest;newEdgeStyle={&quot;edgeStyle&quot;:&quot;elbowEdgeStyle&quot;,&quot;elbow&quot;:&quot;vertical&quot;,&quot;curved&quot;:0,&quot;rounded&quot;:0};" vertex="1" parent="1">
          <mxGeometry x="325" y="110" width="10" height="30" as="geometry" />
        </mxCell>
        <mxCell id="7gcUfqCAIOT7PAXHqLe8-16" value="" style="endArrow=none;dashed=1;html=1;rounded=0;" edge="1" parent="1" source="7gcUfqCAIOT7PAXHqLe8-19" target="7gcUfqCAIOT7PAXHqLe8-17">
          <mxGeometry width="50" height="50" relative="1" as="geometry">
            <mxPoint x="330" y="670" as="sourcePoint" />
            <mxPoint x="330" y="140" as="targetPoint" />
          </mxGeometry>
        </mxCell>
        <mxCell id="7gcUfqCAIOT7PAXHqLe8-17" value="" style="html=1;points=[];perimeter=orthogonalPerimeter;outlineConnect=0;targetShapes=umlLifeline;portConstraint=eastwest;newEdgeStyle={&quot;edgeStyle&quot;:&quot;elbowEdgeStyle&quot;,&quot;elbow&quot;:&quot;vertical&quot;,&quot;curved&quot;:0,&quot;rounded&quot;:0};" vertex="1" parent="1">
          <mxGeometry x="325" y="170" width="10" height="30" as="geometry" />
        </mxCell>
        <mxCell id="7gcUfqCAIOT7PAXHqLe8-18" value="" style="endArrow=none;dashed=1;html=1;rounded=0;" edge="1" parent="1" target="7gcUfqCAIOT7PAXHqLe8-19">
          <mxGeometry width="50" height="50" relative="1" as="geometry">
            <mxPoint x="330" y="610" as="sourcePoint" />
            <mxPoint x="330" y="200" as="targetPoint" />
          </mxGeometry>
        </mxCell>
        <mxCell id="7gcUfqCAIOT7PAXHqLe8-19" value="" style="html=1;points=[];perimeter=orthogonalPerimeter;outlineConnect=0;targetShapes=umlLifeline;portConstraint=eastwest;newEdgeStyle={&quot;edgeStyle&quot;:&quot;elbowEdgeStyle&quot;,&quot;elbow&quot;:&quot;vertical&quot;,&quot;curved&quot;:0,&quot;rounded&quot;:0};" vertex="1" parent="1">
          <mxGeometry x="325" y="230" width="10" height="360" as="geometry" />
        </mxCell>
        <mxCell id="7gcUfqCAIOT7PAXHqLe8-20" value="&lt;font style=&quot;font-size: 9px;&quot;&gt;7 : GitHubActions(solution)&lt;/font&gt;" style="html=1;verticalAlign=bottom;endArrow=block;endSize=6;edgeStyle=elbowEdgeStyle;elbow=vertical;curved=0;rounded=0;endFill=1;" edge="1" parent="1" source="7gcUfqCAIOT7PAXHqLe8-19" target="7gcUfqCAIOT7PAXHqLe8-2">
          <mxGeometry relative="1" as="geometry">
            <mxPoint x="-85" y="290" as="targetPoint" />
            <Array as="points">
              <mxPoint x="190" y="300" />
            </Array>
            <mxPoint x="325" y="290" as="sourcePoint" />
          </mxGeometry>
        </mxCell>
        <mxCell id="7gcUfqCAIOT7PAXHqLe8-21" value="&lt;p style=&quot;line-height: 120%; font-size: 9px;&quot;&gt;&lt;font style=&quot;font-size: 9px;&quot;&gt;&lt;b&gt;alt&lt;/b&gt;: errorHappened == false&lt;/font&gt;&lt;/p&gt;" style="shape=umlFrame;whiteSpace=wrap;html=1;pointerEvents=0;width=110;height=30;verticalAlign=middle;horizontal=1;labelPosition=center;verticalLabelPosition=middle;align=center;" vertex="1" parent="1">
          <mxGeometry x="-230" y="240" width="670" height="370" as="geometry" />
        </mxCell>
        <mxCell id="7gcUfqCAIOT7PAXHqLe8-22" value="" style="html=1;points=[[0,0,0,0,5],[0,1,0,0,-5],[1,0,0,0,5],[1,1,0,0,-5]];perimeter=orthogonalPerimeter;outlineConnect=0;targetShapes=umlLifeline;portConstraint=eastwest;newEdgeStyle={&quot;curved&quot;:0,&quot;rounded&quot;:0};" vertex="1" parent="1">
          <mxGeometry x="130" y="325" width="10" height="25" as="geometry" />
        </mxCell>
        <mxCell id="7gcUfqCAIOT7PAXHqLe8-23" value="&lt;font style=&quot;font-size: 9px;&quot;&gt;8 : checkDeadline()&lt;/font&gt;" style="html=1;align=left;spacingLeft=2;endArrow=block;rounded=0;edgeStyle=orthogonalEdgeStyle;curved=0;rounded=0;" edge="1" parent="1" target="7gcUfqCAIOT7PAXHqLe8-22">
          <mxGeometry relative="1" as="geometry">
            <mxPoint x="135" y="310" as="sourcePoint" />
            <Array as="points">
              <mxPoint x="160" y="310" />
              <mxPoint x="160" y="325" />
            </Array>
          </mxGeometry>
        </mxCell>
        <mxCell id="7gcUfqCAIOT7PAXHqLe8-24" value="&lt;p style=&quot;line-height: 120%; font-size: 9px;&quot;&gt;&lt;font style=&quot;font-size: 9px;&quot;&gt;&lt;b&gt;alt&lt;/b&gt;: submissionDeadline&lt;/font&gt;&lt;span style=&quot;background-color: initial;&quot;&gt;Expired == true&lt;/span&gt;&lt;/p&gt;" style="shape=umlFrame;whiteSpace=wrap;html=1;pointerEvents=0;width=120;height=40;verticalAlign=middle;horizontal=1;labelPosition=center;verticalLabelPosition=middle;align=center;" vertex="1" parent="1">
          <mxGeometry x="-220" y="360" width="650" height="200" as="geometry" />
        </mxCell>
        <mxCell id="7gcUfqCAIOT7PAXHqLe8-29" value="&lt;font style=&quot;font-size: 9px;&quot;&gt;9 : sendMessage(error)&lt;/font&gt;" style="html=1;verticalAlign=bottom;endArrow=open;endSize=8;edgeStyle=elbowEdgeStyle;elbow=vertical;curved=0;rounded=0;endFill=0;" edge="1" parent="1" target="7gcUfqCAIOT7PAXHqLe8-34">
          <mxGeometry x="-0.2741" relative="1" as="geometry">
            <mxPoint x="295" y="395" as="targetPoint" />
            <Array as="points">
              <mxPoint x="380" y="395" />
            </Array>
            <mxPoint x="136" y="395" as="sourcePoint" />
            <mxPoint as="offset" />
          </mxGeometry>
        </mxCell>
        <mxCell id="7gcUfqCAIOT7PAXHqLe8-30" value="&lt;p style=&quot;line-height: 120%;&quot;&gt;&lt;font style=&quot;font-size: 10px;&quot;&gt;&lt;b&gt;loop foreach&lt;/b&gt;: student != &#39;Student&#39;&amp;nbsp;&lt;b&gt;in &lt;/b&gt;group&lt;/font&gt;&lt;/p&gt;" style="shape=umlFrame;whiteSpace=wrap;html=1;pointerEvents=0;width=100;height=50;verticalAlign=middle;horizontal=1;labelPosition=center;verticalLabelPosition=middle;align=center;" vertex="1" parent="1">
          <mxGeometry x="20" y="375" width="400" height="50" as="geometry" />
        </mxCell>
        <mxCell id="7gcUfqCAIOT7PAXHqLe8-31" value="&lt;font style=&quot;font-size: 9px;&quot;&gt;Another student&lt;/font&gt;" style="shape=umlActor;verticalLabelPosition=bottom;verticalAlign=top;html=1;outlineConnect=0;" vertex="1" parent="1">
          <mxGeometry x="390" y="40" width="20" height="40" as="geometry" />
        </mxCell>
        <mxCell id="7gcUfqCAIOT7PAXHqLe8-32" value="" style="endArrow=none;dashed=1;html=1;rounded=0;" edge="1" parent="1" source="7gcUfqCAIOT7PAXHqLe8-34">
          <mxGeometry width="50" height="50" relative="1" as="geometry">
            <mxPoint x="399.58" y="460" as="sourcePoint" />
            <mxPoint x="399.58" y="100" as="targetPoint" />
          </mxGeometry>
        </mxCell>
        <mxCell id="7gcUfqCAIOT7PAXHqLe8-33" value="" style="endArrow=none;dashed=1;html=1;rounded=0;" edge="1" parent="1" target="7gcUfqCAIOT7PAXHqLe8-34">
          <mxGeometry width="50" height="50" relative="1" as="geometry">
            <mxPoint x="400" y="610" as="sourcePoint" />
            <mxPoint x="399.58" y="100" as="targetPoint" />
          </mxGeometry>
        </mxCell>
        <mxCell id="7gcUfqCAIOT7PAXHqLe8-34" value="" style="html=1;points=[];perimeter=orthogonalPerimeter;outlineConnect=0;targetShapes=umlLifeline;portConstraint=eastwest;newEdgeStyle={&quot;edgeStyle&quot;:&quot;elbowEdgeStyle&quot;,&quot;elbow&quot;:&quot;vertical&quot;,&quot;curved&quot;:0,&quot;rounded&quot;:0};" vertex="1" parent="1">
          <mxGeometry x="395" y="395" width="10" height="15" as="geometry" />
        </mxCell>
        <mxCell id="7gcUfqCAIOT7PAXHqLe8-35" value="&lt;font style=&quot;font-size: 9px;&quot;&gt;10 : sendMessage(error)&lt;/font&gt;" style="html=1;verticalAlign=bottom;endArrow=openThin;endSize=8;edgeStyle=elbowEdgeStyle;elbow=vertical;curved=0;rounded=0;endFill=0;dashed=1;" edge="1" parent="1" source="7gcUfqCAIOT7PAXHqLe8-2" target="7gcUfqCAIOT7PAXHqLe8-5">
          <mxGeometry relative="1" as="geometry">
            <mxPoint x="-85" y="549" as="targetPoint" />
            <Array as="points">
              <mxPoint x="70" y="450" />
            </Array>
            <mxPoint x="126" y="549" as="sourcePoint" />
          </mxGeometry>
        </mxCell>
        <mxCell id="7gcUfqCAIOT7PAXHqLe8-36" value="[then]" style="text;html=1;strokeColor=none;fillColor=none;align=center;verticalAlign=middle;whiteSpace=wrap;rounded=0;fontSize=10;" vertex="1" parent="1">
          <mxGeometry x="-190" y="280" width="35" height="10" as="geometry" />
        </mxCell>
        <mxCell id="7gcUfqCAIOT7PAXHqLe8-37" value="[then]" style="text;html=1;strokeColor=none;fillColor=none;align=center;verticalAlign=middle;whiteSpace=wrap;rounded=0;fontSize=10;" vertex="1" parent="1">
          <mxGeometry x="-205" y="410" width="35" height="10" as="geometry" />
        </mxCell>
        <mxCell id="7gcUfqCAIOT7PAXHqLe8-38" value="[else]" style="text;html=1;strokeColor=none;fillColor=none;align=center;verticalAlign=middle;whiteSpace=wrap;rounded=0;fontSize=10;" vertex="1" parent="1">
          <mxGeometry x="-205" y="490" width="35" height="10" as="geometry" />
        </mxCell>
        <mxCell id="7gcUfqCAIOT7PAXHqLe8-39" value="[else]" style="text;html=1;strokeColor=none;fillColor=none;align=center;verticalAlign=middle;whiteSpace=wrap;rounded=0;fontSize=10;" vertex="1" parent="1">
          <mxGeometry x="-190" y="580" width="35" height="10" as="geometry" />
        </mxCell>
        <mxCell id="7gcUfqCAIOT7PAXHqLe8-45" value="&lt;font style=&quot;font-size: 9px;&quot;&gt;11 : sendMessage(githubError)&lt;/font&gt;" style="html=1;verticalAlign=bottom;endArrow=openThin;dashed=1;endSize=8;edgeStyle=elbowEdgeStyle;elbow=vertical;curved=0;rounded=0;endFill=0;" edge="1" parent="1" source="7gcUfqCAIOT7PAXHqLe8-19" target="7gcUfqCAIOT7PAXHqLe8-5">
          <mxGeometry x="-0.0488" relative="1" as="geometry">
            <mxPoint x="-75" y="760" as="targetPoint" />
            <Array as="points">
              <mxPoint x="130" y="590" />
            </Array>
            <mxPoint x="335" y="760" as="sourcePoint" />
            <mxPoint as="offset" />
          </mxGeometry>
        </mxCell>
        <mxCell id="7gcUfqCAIOT7PAXHqLe8-46" value="" style="endArrow=none;dashed=1;html=1;rounded=0;" edge="1" parent="1">
          <mxGeometry width="50" height="50" relative="1" as="geometry">
            <mxPoint x="-90.5" y="610" as="sourcePoint" />
            <mxPoint x="-90.5" y="600" as="targetPoint" />
          </mxGeometry>
        </mxCell>
        <mxCell id="7gcUfqCAIOT7PAXHqLe8-48" value="" style="endArrow=none;dashed=1;html=1;rounded=0;strokeWidth=2;exitX=0;exitY=0.636;exitDx=0;exitDy=0;exitPerimeter=0;entryX=1.002;entryY=0.642;entryDx=0;entryDy=0;entryPerimeter=0;" edge="1" parent="1">
          <mxGeometry width="50" height="50" relative="1" as="geometry">
            <mxPoint x="-220" y="470" as="sourcePoint" />
            <mxPoint x="431" y="472" as="targetPoint" />
          </mxGeometry>
        </mxCell>
        <mxCell id="7gcUfqCAIOT7PAXHqLe8-50" value="&lt;b&gt;ref&lt;/b&gt;" style="shape=umlFrame;whiteSpace=wrap;html=1;pointerEvents=0;width=45;height=15;swimlaneFillColor=default;" vertex="1" parent="1">
          <mxGeometry x="-157.5" y="490" width="575" height="50" as="geometry" />
        </mxCell>
        <mxCell id="7gcUfqCAIOT7PAXHqLe8-51" value="Upload of a solution within deadline" style="text;html=1;strokeColor=none;fillColor=none;align=center;verticalAlign=middle;whiteSpace=wrap;rounded=0;" vertex="1" parent="1">
          <mxGeometry x="42.5" y="500" width="180" height="30" as="geometry" />
        </mxCell>
        <mxCell id="7gcUfqCAIOT7PAXHqLe8-53" value="" style="endArrow=none;dashed=1;html=1;rounded=0;strokeWidth=2;exitX=0.003;exitY=0.653;exitDx=0;exitDy=0;exitPerimeter=0;" edge="1" parent="1">
          <mxGeometry width="50" height="50" relative="1" as="geometry">
            <mxPoint x="-230" y="571" as="sourcePoint" />
            <mxPoint x="440" y="570" as="targetPoint" />
          </mxGeometry>
        </mxCell>
      </root>
    </mxGraphModel>
  </diagram>
</mxfile>
